HIERARCHY
ROOT Hips
{
	OFFSET -3.958830 18.904000 13.208200
	CHANNELS 6 Xposition Yposition Zposition Zrotation Yrotation Xrotation 
	JOINT LHipJoint
	{
		OFFSET 0.000000 0.000000 0.000000
		CHANNELS 3 Zrotation Yrotation Xrotation
		JOINT LeftUpLeg
		{
			OFFSET 1.800000 -1.400000 0.085000
			CHANNELS 3 Zrotation Yrotation Xrotation
			JOINT LeftLeg
			{
				OFFSET 2.215000 -6.000000 0.000000
				CHANNELS 3 Zrotation Yrotation Xrotation
				JOINT LeftFoot
				{
					OFFSET 2.500000 -6.900000 0.000000
					CHANNELS 3 Zrotation Yrotation Xrotation
					JOINT LeftToeBase
					{
						OFFSET 0.200000 -0.500000 1.950000
						CHANNELS 3 Zrotation Yrotation Xrotation
						End Site
						{
							OFFSET 0.000000 0.000000 0.000000
						}
					}
				}
			}
		}
	}
	JOINT RHipJoint
	{
		OFFSET 0.000000 0.000000 0.000000
		CHANNELS 3 Zrotation Yrotation Xrotation
		JOINT RightUpLeg
		{
			OFFSET -1.800000 -1.400000 0.085000
			CHANNELS 3 Zrotation Yrotation Xrotation
			JOINT RightLeg
			{
				OFFSET -2.215000 -6.000000 0.000000
				CHANNELS 3 Zrotation Yrotation Xrotation
				JOINT RightFoot
				{
					OFFSET -2.500000 -6.900000 0.000000
					CHANNELS 3 Zrotation Yrotation Xrotation
					JOINT RightToeBase
					{
						OFFSET -0.200000 -0.500000 1.950000
						CHANNELS 3 Zrotation Yrotation Xrotation
						End Site
						{
							OFFSET 0.000000 0.000000 0.000000
						}
					}
				}
			}
		}
	}
	JOINT LowerBack
	{
		OFFSET 0.000000 0.000000 0.000000
		CHANNELS 3 Zrotation Yrotation Xrotation
		JOINT Spine
		{
			OFFSET -0.087000 1.940000 -0.288900
			CHANNELS 3 Zrotation Yrotation Xrotation
			JOINT Spine1
			{
				OFFSET 0.000000 1.950000 0.060000
				CHANNELS 3 Zrotation Yrotation Xrotation
				JOINT Neck
				{
					OFFSET 0.000000 0.000000 0.000000
					CHANNELS 3 Zrotation Yrotation Xrotation
					JOINT Neck1
					{
						OFFSET 0.000000 1.600000 0.340000
						CHANNELS 3 Zrotation Yrotation Xrotation
						JOINT Head
						{
							OFFSET 0.000000 1.667000 -0.240000
							CHANNELS 3 Zrotation Yrotation Xrotation
							End Site
							{
								OFFSET 0.000000 0.000000 0.000000
							}
						}
					}
				}
				JOINT LeftShoulder
				{
					OFFSET 0.000000 0.000000 0.000000
					CHANNELS 3 Zrotation Yrotation Xrotation
					JOINT LeftArm
					{
						OFFSET 2.700000 1.550000 -0.730000
						CHANNELS 3 Zrotation Yrotation Xrotation
						JOINT LeftForeArm
						{
							OFFSET 5.450000 0.000000 0.000000
							CHANNELS 3 Zrotation Yrotation Xrotation
							JOINT LeftHand
							{
								OFFSET 3.450000 0.000000 0.000000
								CHANNELS 3 Zrotation Yrotation Xrotation
								JOINT LeftHandIndex1
								{
									OFFSET 0.750000 0.000000 0.000000
									CHANNELS 3 Zrotation Yrotation Xrotation
									End Site
									{
										OFFSET 0.000000 0.000000 0.000000
									}
								}
							}
						}
					}
				}
				JOINT RightShoulder
				{
					OFFSET 0.000000 0.000000 0.000000
					CHANNELS 3 Zrotation Yrotation Xrotation
					JOINT RightArm
					{
						OFFSET -2.700000 1.550000 -0.730000
						CHANNELS 3 Zrotation Yrotation Xrotation
						JOINT RightForeArm
						{
							OFFSET -5.450000 0.000000 0.000000
							CHANNELS 3 Zrotation Yrotation Xrotation
							JOINT RightHand
							{
								OFFSET -3.450000 0.000000 0.000000
								CHANNELS 3 Zrotation Yrotation Xrotation
								JOINT RightHandIndex1
								{
									OFFSET -0.750000 0.000000 0.000000
									CHANNELS 3 Zrotation Yrotation Xrotation
									End Site
									{
										OFFSET 0.000000 0.000000 0.000000
									}
								}
							}
						}
					}
				}
			}
		}
	}
}
MOTION
Frames: 9
Frame Time: 0.016667
1.249850 17.005950 -0.652470 -3.138018 -0.198727 -7.143081 -15.052799 12.924558 2.612977 -2.410998 0.411105 -1.035399 -6.001532 6.093349 13.919858 -0.736783 4.919408 3.082769 0.291280 -0.069790 0.307140 18.679597 -9.048313 4.620461 -5.308145 4.296149 -55.562317 6.682574 -8.131963 32.015585 -0.186762 -4.421413 2.844626 0.148250 0.342960 0.110640 -4.344447 -2.953140 -8.017737 22.761920 -14.354288 27.123408 -4.301851 -11.061340 12.045568 -0.539420 -4.063959 -9.054157 -10.879742 4.350159 35.176684 -12.926230 6.810190 -11.254890 -9.058288 -17.051414 1.599887 -12.622737 -22.944942 -6.661602 59.563672 -65.643983 -37.080211 -3.688240 1.801192 0.573470 0.331300 -0.248840 0.055000 10.568703 13.963293 6.700997 46.421041 11.782479 -13.469981 -89.052586 71.739048 -66.310606 0.637567 2.032052 -0.446110 0.406370 0.213800 -0.449170 
1.248140 17.007230 -0.654050 -3.217232 -0.244333 -7.321379 -15.055671 12.931028 2.605237 -2.348841 0.385070 -0.976444 -5.870122 6.098106 14.154784 -0.739423 4.937702 3.074715 0.287040 -0.076640 0.309350 18.676166 -9.040186 4.638934 -5.197064 4.390439 -55.676716 6.682106 -8.155771 32.232511 -0.191035 -4.449757 2.834303 0.145200 0.341210 0.111940 -4.334079 -2.962953 -8.025170 22.717758 -14.371186 27.337687 -4.197161 -11.061515 12.158699 -0.510331 -3.948590 -9.117405 -10.642302 4.334031 35.244370 -13.135190 6.969230 -11.288690 -9.018630 -17.277327 1.639484 -12.165866 -22.778347 -6.802285 60.020405 -65.314340 -37.163785 -3.695212 1.796942 0.576740 0.333180 -0.248950 0.050300 10.483786 14.125132 6.789705 46.345631 11.903229 -13.272712 -89.727847 71.030525 -66.678466 0.674990 1.939916 -0.449030 0.404540 0.217420 -0.454230 
1.246090 17.008680 -0.654460 -3.287909 -0.319555 -7.471158 -15.058561 12.939424 2.598342 -2.320328 0.350782 -0.966055 -5.710991 6.097227 14.437975 -0.740707 4.952820 3.067110 0.282820 -0.084210 0.312650 18.672163 -9.032534 4.657184 -5.068427 4.503196 -55.758006 6.684638 -8.169128 32.419082 -0.194323 -4.470617 2.825766 0.140720 0.339170 0.114350 -4.322806 -2.975357 -8.032426 22.651444 -14.359614 27.520796 -4.088778 -11.038996 12.245359 -0.473391 -3.834159 -9.177031 -10.409769 4.319394 35.323542 -13.319700 7.128290 -11.284910 -8.986580 -17.477521 1.692875 -11.832011 -22.613322 -6.924096 60.417188 -65.047227 -37.259783 -3.701692 1.794642 0.578820 0.334710 -0.248920 0.044950 10.389103 14.277589 6.852169 46.297264 11.998428 -13.235465 -89.944864 70.606521 -66.725488 0.696951 1.869837 -0.450240 0.400860 0.220860 -0.458690 
1.243780 17.009580 -0.654040 -3.372415 -0.409980 -7.576740 -15.059729 12.944189 2.587921 -2.298979 0.303580 -1.014652 -5.523197 6.086249 14.763035 -0.744338 4.963056 3.060552 0.281350 -0.088590 0.316340 18.670467 -9.025039 4.678842 -4.918385 4.643812 -55.854531 6.694884 -8.180907 32.603818 -0.199271 -4.489671 2.816464 0.138920 0.335920 0.117440 -4.317514 -2.979127 -8.037130 22.644810 -14.351482 27.642213 -4.017162 -11.005553 12.297533 -0.440672 -3.747881 -9.214333 -10.225550 4.309647 35.371793 -13.452910 7.245840 -11.331680 -8.927564 -17.596868 1.728104 -11.636475 -22.500155 -7.002815 60.658982 -64.869916 -37.316031 -3.704761 1.794445 0.582090 0.334750 -0.247060 0.041280 10.272374 14.369409 6.881845 46.323153 12.092704 -13.261336 -89.902102 70.380127 -66.585496 0.705995 1.820585 -0.451150 0.397230 0.222650 -0.462660 
1.240760 17.011140 -0.653400 -3.455862 -0.491744 -7.678278 -15.060885 12.952188 2.578276 -2.273342 0.254025 -1.078460 -5.332569 6.074598 15.091486 -0.747093 4.971503 3.055181 0.279590 -0.092870 0.319000 18.668177 -9.019209 4.697226 -4.741139 4.789089 -55.918237 6.653137 -8.171084 32.779480 -0.202228 -4.500414 2.811985 0.136560 0.333510 0.118020 -4.311353 -2.987755 -8.040981 22.615936 -14.337955 27.752138 -3.916420 -10.974854 12.343035 -0.423386 -3.679654 -9.265449 -10.087807 4.315927 35.452470 -13.526430 7.343330 -11.333750 -8.854741 -17.726849 1.794911 -11.544229 -22.357151 -7.087008 60.885529 -64.733706 -37.408918 -3.706100 1.793071 0.584460 0.334260 -0.246850 0.037910 10.174092 14.490752 6.899954 46.346415 12.184241 -13.388163 -89.584231 70.292569 -66.228666 0.705728 1.781825 -0.452240 0.394950 0.224420 -0.466070 
1.237720 17.012770 -0.652610 -3.533507 -0.572019 -7.787729 -15.060906 12.959729 2.568537 -2.280366 0.197607 -1.167844 -5.102613 6.057435 15.494784 -0.750285 4.981193 3.049859 0.277110 -0.097480 0.320600 18.666691 -9.017834 4.714126 -4.537023 4.937365 -55.976008 6.527504 -8.139509 32.983555 -0.204106 -4.508841 2.809490 0.134250 0.333020 0.118320 -4.307902 -2.989805 -8.043496 22.595855 -14.329812 27.874170 -3.850268 -10.943529 12.362950 -0.400665 -3.608749 -9.299900 -9.938719 4.322696 35.522503 -13.577690 7.434270 -11.323290 -8.822177 -17.850775 1.845863 -11.410834 -22.188690 -7.180627 61.000468 -64.698985 -37.473298 -3.707819 1.790376 0.586560 0.334940 -0.247360 0.035000 10.105364 14.599800 6.906497 46.364795 12.263528 -13.552469 -89.132477 70.312083 -65.784982 0.698821 1.756228 -0.454100 0.393990 0.226420 -0.468870 
1.234590 17.013900 -0.651460 -3.609534 -0.650373 -7.904259 -15.061003 12.967348 2.559111 -2.284244 0.137700 -1.258747 -4.883053 6.044656 15.920542 -0.752748 4.993979 3.043154 0.274460 -0.101110 0.321290 18.665015 -9.017305 4.729528 -4.335738 5.084845 -56.009934 6.409124 -8.107262 33.177295 -0.205554 -4.516824 2.807538 0.132710 0.332530 0.117980 -4.304134 -2.991531 -8.045430 22.577879 -14.312163 27.994904 -3.772118 -10.906531 12.376378 -0.384115 -3.533419 -9.318768 -9.778695 4.319410 35.579577 -13.645230 7.528830 -11.302910 -8.791537 -17.952045 1.880546 -11.287831 -22.049841 -7.260626 60.998904 -64.705227 -37.478138 -3.709772 1.789912 0.587390 0.336200 -0.248420 0.032190 10.051074 14.683108 6.899964 46.371387 12.348857 -13.702446 -88.678870 70.336933 -65.341058 0.691390 1.730704 -0.455840 0.393230 0.228570 -0.471540 
1.230490 17.014640 -0.650320 -3.653589 -0.721193 -8.036124 -15.061047 12.975684 2.550571 -2.326344 0.073746 -1.355888 -4.616024 6.022398 16.410327 -0.755248 5.009032 3.035768 0.273070 -0.104320 0.322730 18.663233 -9.018399 4.743742 -4.141577 5.223915 -56.033817 6.262934 -8.070245 33.391285 -0.208277 -4.526707 2.805070 0.131240 0.332440 0.118840 -4.300346 -2.993476 -8.047583 22.512478 -14.282942 28.128002 -3.708057 -10.871131 12.381727 -0.369168 -3.456418 -9.325534 -9.621839 4.324220 35.665823 -13.697030 7.615690 -11.309330 -8.784896 -18.034342 1.900561 -11.149422 -21.919823 -7.333101 60.968626 -64.717800 -37.459397 -3.711431 1.789701 0.589640 0.337150 -0.248350 0.030650 10.025053 14.746603 6.885069 46.410820 12.451842 -13.849857 -88.177898 70.417419 -64.882803 0.681550 1.712759 -0.457470 0.392990 0.230110 -0.473970 
1.225730 17.014530 -0.648750 -3.672440 -0.801459 -8.161685 -15.060406 12.978987 2.542622 -2.378892 0.000853 -1.469666 -4.391456 6.010328 16.925634 -0.755759 5.027445 3.026083 0.271530 -0.107060 0.324110 18.662874 -9.018185 4.760325 -3.961813 5.368143 -56.081609 6.117247 -8.039488 33.642869 -0.211502 -4.544537 2.798195 0.130190 0.330610 0.119340 -4.299602 -2.989187 -8.051078 22.448853 -14.244083 28.236919 -3.680054 -10.825636 12.377969 -0.354616 -3.392001 -9.329219 -9.490709 4.315137 35.743844 -13.757580 7.694750 -11.268120 -8.823288 -18.112053 1.910637 -10.972447 -21.794583 -7.398046 60.922053 -64.704694 -37.396218 -3.712758 1.792911 0.590550 0.337520 -0.248460 0.028230 10.040844 14.813678 6.881635 46.467621 12.529709 -13.980854 -87.717485 70.509135 -64.481734 0.674375 1.697420 -0.458410 0.390280 0.230940 -0.476240 
